<?xml version="1.0" standalone="no"?><!DOCTYPE svg PUBLIC "-//W3C//DTD SVG 1.1//EN" "http://www.w3.org/Graphics/SVG/1.1/DTD/svg11.dtd"><svg t="1637312675988" class="icon" viewBox="0 0 1024 1024" version="1.1" xmlns="http://www.w3.org/2000/svg" p-id="4761" xmlns:xlink="http://www.w3.org/1999/xlink" width="200" height="200"><defs><style type="text/css"></style></defs><path d="M0 146.3h1024v48.8H0z" fill="#607D8B" p-id="4762"></path><path d="M773.9 729l-155.1-78 29-174.1 94-270.2c6.4-19.2-4-39.9-23.1-46.3-19.2-6.4-39.9 4-46.3 23.1l-87.2 255.4s0 24.4-73.1 24.4-73.1-24.4-73.1-24.4l-87.2-255.4c-6.4-19.2-27.1-29.5-46.3-23.1-19.2 6.4-29.5 27.1-23.1 46.3L377.7 481l33.4 205.5L162 939.3c-19.5 18.6-20.2 49.5-1.6 68.9 18 18.9 47.7 20.2 67.4 3L512 755.9h0.3L707 804.6l-24.1 164.6c-3.3 26.7 15.6 51.1 42.3 54.4 2 0.3 4.1 0.4 6.1 0.4 24.6 0 45.3-18.3 48.3-42.7L804 780.2c2.8-22-9.6-43-30.1-51.2z" fill="#FFBA57" p-id="4763"></path><path d="M512 341.3m-73.1 0a73.1 73.1 0 1 0 146.2 0 73.1 73.1 0 1 0-146.2 0Z" fill="#FFBA57" p-id="4764"></path><path d="M950.9 317c0 13.5-10.9 24.4-24.4 24.4h-24.4c-13.5 0-24.4-10.9-24.4-24.4V24.4c0-13.5 10.9-24.4 24.4-24.4h24.4c13.5 0 24.4 10.9 24.4 24.4V317zM73.1 317c0 13.5 10.9 24.4 24.4 24.4h24.4c13.5 0 24.4-10.9 24.4-24.4V24.4c0-13.5-10.9-24.4-24.4-24.4H97.5C84.1 0 73.1 10.9 73.1 24.4V317z" fill="#E64A19" p-id="4765"></path><path d="M877.7 317c0 13.5-10.9 24.4-24.4 24.4H829c-13.5 0-24.4-10.9-24.4-24.4V24.4C804.6 10.9 815.5 0 829 0h24.4c13.5 0 24.4 10.9 24.4 24.4V317zM146.3 317c0 13.5 10.9 24.4 24.4 24.4H195c13.5 0 24.4-10.9 24.4-24.4V24.4C219.4 10.9 208.5 0 195 0h-24.4c-13.5 0-24.4 10.9-24.4 24.4V317z" fill="#FF754C" p-id="4766"></path><path d="M633.9 146.3h121.9v48.8H633.9zM268.2 146.3h121.9v48.8H268.2z" fill="#90A4AE" p-id="4767"></path><path d="M707 804.6V694.9l-88.2-44.1 16.6-100c-33-22.2-52-60-50.3-99.7 0.1-5.3 0.5-10.6 1.2-15.8l-1.2 3.6s0 12-25.4 19.1c-4.4 44.7-24.1 78.4-47.8 78.4S468.6 502.7 464 458c-25.2-7.2-25.3-19.1-25.3-19.1l-1.2-3.6c0.7 5.2 1.1 10.5 1.2 15.8 1.7 39.6-17.2 77.2-49.9 99.5l22.1 135.8-93.2 94.7 78.7 78.7L512 755.9h0.3L707 804.6z" fill="#00ACC1" p-id="4768"></path><path d="M511.9 707.1L367.7 831l28.7 28.7L512 755.8l195 48.8v-38.1l-195.1-59.4z" fill="#0097A7" p-id="4769"></path></svg>