<?xml version="1.0" standalone="no"?><!DOCTYPE svg PUBLIC "-//W3C//DTD SVG 1.1//EN" "http://www.w3.org/Graphics/SVG/1.1/DTD/svg11.dtd"><svg t="1637312790712" class="icon" viewBox="0 0 1024 1024" version="1.1" xmlns="http://www.w3.org/2000/svg" p-id="2661" xmlns:xlink="http://www.w3.org/1999/xlink" width="200" height="200"><defs><style type="text/css"></style></defs><path d="M202.192 285.204l34.506-34.506 73.115 73.114-34.507 34.506z" fill="#455A64" p-id="2662"></path><path d="M240.7 194.001c31.2 25.6 36.4 71.4 11.6 103.3-29.4 27.2-75.4 25.4-102.6-4l-0.2-0.2c-31.2-25.6-36.4-71.4-11.6-103.3 29.4-27.2 75.3-25.5 102.6 4l0.2 0.2z" fill="#FF754C" p-id="2663"></path><path d="M1004.5 862.701L853.3 755.501v-195c-0.1-2.5-0.3-5-0.8-7.5 0.3-3.5 0.4-7.1 0.3-10.6-1.6-22.2-29.8-133.8-141.8-255.1l81.2-84.2 125.1 106.8c16.4 11.7 39.3 7.9 51-8.5s7.9-39.3-8.5-51l-146.1-122c-12.7-9-29.7-9-42.3 0l-62.7 48.8-143.6 111.7-146.5 114.2L306.3 303.001c-14.7-13.9-37.8-13.2-51.7 1.5-13.3 14.1-13.3 36.2 0 50.3l134.1 121.9c12.6 12.6 32.4 14.3 47 4l137.4-91c60.9 61.8 96.7 107 106.8 148.2l-160.2 98.7c-13.1 4.7-23.5 14.8-28.6 27.7l-97.5 219.4c-10.3 24.9 1.5 53.4 26.3 63.7s53.4-1.5 63.7-26.3c0.2-0.4 0.3-0.7 0.4-1.1l89.4-199.2L741.6 653.001l14.2 126.9c0 15.3 7.2 29.8 19.5 39L946 940.801c21.5 16.2 52.1 11.8 68.3-9.8 16.1-21.5 11.7-52.1-9.8-68.3z" fill="#FFBA57" p-id="2664"></path><path d="M524.2 72.901c-47.1 0-85.3 38.2-85.3 85.3s38.2 85.3 85.3 85.3 85.3-38.2 85.3-85.3-38.2-85.3-85.3-85.3" fill="#FFBA57" p-id="2665"></path><path d="M36.6 450.801m-36.6 0a36.6 36.6 0 1 0 73.2 0 36.6 36.6 0 1 0-73.2 0Z" fill="#B0BEC5" p-id="2666"></path><path d="M682.6 536.101l151.6-58.7C805.1 407.001 763.3 342.601 711 287.201l47.9-49.7-50.3-60.4-251.7 196.2 46.7 62.3 69.4-46c60.9 61.8 96.7 107 106.8 148.2 0.1 0 2.8-1.7 2.8-1.7z" fill="#5EC08F" p-id="2667"></path><path d="M853.3 706.801V560.501H731.4l16.2 146.3h105.7z" fill="#2D4C5C" p-id="2668"></path><path d="M852.9 542.301c-3.4-22.3-9.6-44.1-18.5-64.9l-151.7 58.7-101 62.1 54.1 97.5 160.9-64.9c6.7-2.5 12.8-6.4 17.8-11.5 25.7-16.8 40.4-46.2 38.3-76.8l0.1-0.2z" fill="#546E7A" p-id="2669"></path></svg>