<?xml version="1.0" standalone="no"?><!DOCTYPE svg PUBLIC "-//W3C//DTD SVG 1.1//EN" "http://www.w3.org/Graphics/SVG/1.1/DTD/svg11.dtd"><svg t="1637312763499" class="icon" viewBox="0 0 1024 1024" version="1.1" xmlns="http://www.w3.org/2000/svg" p-id="2506" xmlns:xlink="http://www.w3.org/1999/xlink" width="200" height="200"><defs><style type="text/css"></style></defs><path d="M585.099928 609.499399c-2.899997-24.699976-15.299985-47.299953-34.499966-62.999938-28.999971-23.999976-43.599957-61.29994-38.599962-98.699903 0-47.099954 4.699995-76.099925-14.599986-95.499905-4.399996-4.399996-9.299991-8.199992-14.599985-11.399989L342.900167 219.399784h-74.699927v12.199988c0 8.699991 3.099997 17.199983 8.799992 23.799976L370.00014 363.999641c-20.49998 28.899971-30.59997 63.899937-28.699972 99.199902 6.199994 67.899933 35.199965 131.59987 82.299919 180.899822 0.899999-2.099998 25.099975-58.999942 63.999937-58.999942 82.899918 0 100.299901 56.399944 86.399915 79.199922 9.69999-16.499984 13.599987-35.799965 11.099989-54.799946z" fill="#FF66A1" p-id="2507"></path><path d="M395.400115 393.599612L114.900392 566.199442c-17.199983 10.59999-22.499978 33.099967-11.899989 50.29995 6.699993 10.799989 18.399982 17.399983 31.09997 17.399983 6.799993 0 13.399987-1.899998 19.099981-5.399995l309.999694-165.199837-67.799933-69.699931zM694.29982 730.999279c-179.699823 0-251.399752-50.99995-261.299742-58.799942l78.899922-87.099914c2.899997 1.899998 42.699958 50.79995 194.999808 48.799952 70.69993-1.799998 141.099861-9.69999 210.399792-23.599977 26.499974-4.999995 51.999949 12.499988 56.899944 38.899962 4.999995 26.499974-12.499988 51.999949-38.899962 56.899944-79.299922 15.799984-159.999842 24.099976-240.999762 24.899975z" fill="#FFBA57" p-id="2508"></path><path d="M463.200048 828.999182C234.700274 828.999182 48.800457 642.999366 48.800457 414.499591S234.700274 0 463.200048 0s414.499591 185.899817 414.499591 414.499591S691.799823 828.999182 463.200048 828.999182z m0-780.19923c-201.699801 0-365.699639 163.999838-365.699639 365.699639s163.999838 365.699639 365.699639 365.699639 365.699639-163.999838 365.699639-365.699639-163.999838-365.699639-365.699639-365.699639z" fill="#E5D9C5" p-id="2509"></path><path d="M585.599927 621.499387c1.299999 16.899983-3.899996 33.699967-14.599985 46.899954l-43.999957 43.899956c18.999981 4.799995 38.199962 8.599992 57.599943 11.399989l20.79998-20.799979c18.299982-19.699981 28.399972-45.599955 28.399972-72.499929-16.299984-1.899998-32.399968-4.799995-48.199953-8.899991z" fill="#F9A825" p-id="2510"></path><path d="M524.199988 121.89988c-47.099954 0-85.299916 38.199962-85.299916 85.299916s38.199962 85.299916 85.299916 85.299915 85.299916-38.199962 85.299916-85.299915-38.199962-85.299916-85.299916-85.299916M243.800265 1023.99899c-26.899973 0-48.799952-21.799978-48.799952-48.799952 0-10.59999 3.399997-20.799979 9.79999-29.299971l146.299856-194.999808c1.399999-1.799998 2.899997-3.599996 4.499995-5.199995l67.899933-101.399899v-0.2c-47.099954-49.299951-76.099925-113.099888-82.199919-180.899822-1.899998-35.399965 8.199992-70.299931 28.699972-99.199902l-92.999908-108.599893c-5.699994-6.599993-8.799991-15.099985-8.799992-23.799976v-194.999808c0-20.19998 16.399984-36.599964 36.599964-36.599964 20.19998 0 36.599964 16.399984 36.599964 36.599964v181.499821l141.399861 122.799879c5.299995 3.199997 10.19999 7.099993 14.599985 11.399989 15.999984 15.999984 15.599985 38.499962 14.999986 72.599928-0.1 7.299993-0.3 14.599986-0.3 22.899977-4.999995 37.299963 9.599991 74.599926 38.599962 98.699903 19.299981 15.699985 31.599969 38.299962 34.499966 62.999938v2.399997c2.199998 18.099982-1.699998 36.299964-10.899989 51.999949 2.799997-3.899996 4.099996-8.599992 3.799996-13.399987-0.3 4.699995-1.599998 9.299991-3.799996 13.399987l-0.3 0.4c-0.899999 1.499999-1.899998 2.899997-3.199997 4.099996L426.900084 812.299199l-143.999858 192.19981c-9.299991 12.299988-23.699977 19.599981-39.099961 19.499981z" fill="#FFBA57" p-id="2511"></path><path d="M585.099928 609.499399c-2.899997-24.699976-15.299985-47.299953-34.499966-62.999938-28.999971-23.999976-43.599957-61.29994-38.599962-98.699903 0-47.099954 4.699995-76.099925-14.599986-95.499905-4.399996-4.399996-9.299991-8.199992-14.599985-11.399989L342.900167 219.399784h-74.699927v12.199988c0 8.699991 3.099997 17.199983 8.799992 23.799976L370.00014 363.999641c-20.49998 28.899971-30.59997 63.899937-28.699972 99.199902 6.199994 67.899933 35.199965 131.59987 82.299919 180.899822 0.899999-2.099998 25.099975-58.999942 63.999937-58.999942 82.899918 0 100.299901 56.399944 86.399915 79.199922 9.69999-16.499984 13.599987-35.799965 11.099989-54.799946z" fill="#FF66A1" p-id="2512"></path><path d="M341.300168 463.199543c-0.3-12.899987 0.899999-25.799975 3.399997-38.499962l-119.899882 73.799927L261.000248 570.999437l91.399909-48.799952c-6.299994-18.999981-9.99999-38.899962-11.099989-58.999942z" fill="#EC407A" p-id="2513"></path></svg>