<?xml version="1.0" standalone="no"?><!DOCTYPE svg PUBLIC "-//W3C//DTD SVG 1.1//EN" "http://www.w3.org/Graphics/SVG/1.1/DTD/svg11.dtd"><svg t="1637312516701" class="icon" viewBox="0 0 1024 1024" version="1.1" xmlns="http://www.w3.org/2000/svg" p-id="2621" xmlns:xlink="http://www.w3.org/1999/xlink" width="200" height="200"><defs><style type="text/css"></style></defs><path d="M727.96 523.28l120.22 160.66c8.3 11.1 6.04 26.82-5.06 35.12-10.12 7.56-24.08 6.34-32.76-2.34l-142-141.78c-15.44-15.42-15.46-40.44-0.04-55.9 15.42-15.44 40.44-15.46 55.9-0.04 1.32 1.3 2.66 2.84 3.74 4.28z" fill="#F4AA2C" p-id="2622"></path><path d="M828.14 732.3c-8.62 0-17.2-3.28-23.64-9.72l-141.98-141.78c-9.04-9.02-14.02-21.04-14.04-33.82-0.02-12.78 4.96-24.78 13.98-33.82s21.04-14.02 33.82-14.04h0.04c12.76 0 24.76 4.96 33.8 13.98 1.48 1.48 3.08 3.32 4.46 5.14l0.04 0.06 120.22 160.66c5.34 7.14 7.58 15.94 6.32 24.76-1.26 8.82-5.9 16.64-13.04 21.98-5.94 4.42-12.98 6.6-19.98 6.6z m-131.82-216.56h-0.02c-8.34 0-16.18 3.26-22.06 9.16a30.91 30.91 0 0 0-9.12 22.08c0 8.34 3.26 16.18 9.16 22.06l142 141.78c5.86 5.86 15.28 6.54 21.9 1.56 7.4-5.54 8.92-16.08 3.38-23.48l-120.2-160.62c-0.94-1.22-2-2.46-2.96-3.42a31.144 31.144 0 0 0-22.08-9.12z" fill="#0B0606" p-id="2623"></path><path d="M876.02 681.72l130.26 152.62c9 10.54 7.74 26.36-2.8 35.36-9.6 8.2-23.62 7.88-32.84-0.24l-150.78-132.4c-16.4-14.4-18.02-39.38-3.62-55.78 14.4-16.4 39.38-18.02 55.78-3.62 1.4 1.24 2.84 2.7 4 4.06z" fill="#F4AA2C" p-id="2624"></path><path d="M987.22 883.98c-7.9 0-15.78-2.76-22.04-8.26l-150.78-132.4c-9.6-8.42-15.34-20.1-16.18-32.84s3.36-25.06 11.8-34.66c8.42-9.6 20.1-15.34 32.84-16.18 12.74-0.84 25.06 3.36 34.66 11.8 1.56 1.36 3.26 3.08 4.78 4.84l0.04 0.06 130.26 152.64c5.8 6.78 8.6 15.42 7.9 24.3-0.7 8.9-4.82 16.98-11.62 22.76-6.2 5.28-13.94 7.94-21.66 7.94zM846 676.16c-0.68 0-1.38 0.02-2.06 0.08-8.32 0.54-15.94 4.28-21.44 10.54s-8.24 14.3-7.7 22.62 4.28 15.94 10.54 21.44l150.78 132.4c6.22 5.48 15.66 5.54 21.96 0.16a16.736 16.736 0 0 0 5.84-11.44c0.36-4.46-1.06-8.8-3.96-12.22l-130.24-152.6c-1.02-1.16-2.16-2.34-3.16-3.2a30.93 30.93 0 0 0-20.56-7.78z" fill="#0B0606" p-id="2625"></path><path d="M587.82 402.3l-154.54 0.36c-11.14 0.02-20.18-8.98-20.2-20.1-0.02-10.34 7.86-18.9 17.9-20.08l153.58-17.3c15.72-1.78 29.9 9.54 31.68 25.26s-9.54 29.9-25.26 31.68c-1.06 0.12-2.12 0.18-3.16 0.18z" fill="#E74150" p-id="2626"></path><path d="M433.24 410.96c-7.58 0-14.7-2.94-20.08-8.28a28.3 28.3 0 0 1-8.38-20.1c-0.04-14.48 10.82-26.66 25.24-28.34l153.6-17.3c9.84-1.14 19.46 1.68 27.18 7.82 7.72 6.16 12.58 14.96 13.68 24.76 1.1 9.8-1.68 19.46-7.82 27.18a36.724 36.724 0 0 1-24.76 13.68c-1.34 0.16-2.72 0.24-4.04 0.24l-154.54 0.36c-0.04-0.02-0.06-0.02-0.08-0.02z m154.56-57.66c-0.76 0-1.54 0.04-2.32 0.12l-153.58 17.3c-6 0.7-10.54 5.78-10.52 11.8 0 3.16 1.24 6.14 3.48 8.36a11.786 11.786 0 0 0 8.36 3.44h0.02l154.56-0.36c0.72 0 1.46-0.04 2.2-0.12 5.42-0.62 10.26-3.28 13.64-7.54 3.38-4.24 4.92-9.56 4.32-14.96-0.62-5.4-3.28-10.24-7.54-13.62a20.204 20.204 0 0 0-12.62-4.42z" fill="#0B0606" p-id="2627"></path><path d="M438.72 407.58l-154.54 0.18c-11.14 0.02-20.16-9-20.18-20.14-0.02-10.34 7.88-18.9 17.92-20.06l153.6-17.12c15.72-1.76 29.9 9.58 31.64 25.3s-9.58 29.9-25.3 31.64c-1.06 0.14-2.12 0.2-3.14 0.2z" fill="#F4AA2C" p-id="2628"></path><path d="M284.14 416.06c-7.58 0-14.72-2.94-20.1-8.3-5.38-5.38-8.36-12.52-8.36-20.12-0.02-14.48 10.86-26.64 25.28-28.32l153.62-17.12c20.26-2.2 38.58 12.38 40.84 32.64 2.26 20.26-12.38 38.56-32.64 40.84-1.32 0.14-2.7 0.22-4.02 0.22l-154.58 0.16h-0.04z m154.56-57.48c-0.74 0-1.5 0.04-2.26 0.12l-153.6 17.12c-6 0.68-10.54 5.76-10.52 11.78 0 3.16 1.24 6.14 3.48 8.38a11.806 11.806 0 0 0 8.36 3.46h0.02l154.52-0.16c0.74 0 1.48-0.04 2.22-0.12 11.16-1.24 19.22-11.32 17.98-22.48-1.16-10.38-9.98-18.1-20.2-18.1z" fill="#0B0606" p-id="2629"></path><path d="M687.32 598.68c-27.22 7.54-55.42-8.42-62.96-35.64l-61.24-190.92c-7.54-27.22 8.42-55.42 35.64-62.96 27.22-7.54 55.42 8.42 62.96 35.64l61.24 190.92c7.56 27.22-8.4 55.42-35.64 62.96z" fill="#E74150" p-id="2630" data-spm-anchor-id="a313x.7781069.0.i3" class=""></path><path d="M673.58 608.86c-10.14 0-20.14-2.62-29.2-7.74-13.82-7.82-23.78-20.56-28-35.88l-61.16-190.6c-8.84-31.92 9.74-64.74 41.34-73.5 31.6-8.76 64.42 9.82 73.18 41.44l61.16 190.6c4.34 15.62 2.36 31.68-5.46 45.5s-20.56 23.76-35.88 28c-5.3 1.46-10.66 2.18-15.98 2.18zM612.4 315.6c-3.78 0-7.6 0.5-11.4 1.56-22.76 6.3-36.16 29.96-29.86 52.72l61.16 190.6c3.14 11.36 10.32 20.54 20.28 26.16 9.96 5.64 21.5 7.06 32.54 4 22.78-6.3 36.16-29.96 29.86-52.72l-61.16-190.6c-5.34-19.22-22.64-31.72-41.42-31.72z" fill="#0B0606" p-id="2631"></path><path d="M589.3 246.62m-65.96 0a65.96 65.96 0 1 0 131.92 0 65.96 65.96 0 1 0-131.92 0Z" fill="#F4AA2C" p-id="2632"></path><path d="M589.14 320.92c-15.2 0-30-4.66-42.68-13.62-16.2-11.44-26.98-28.52-30.36-48.06-3.36-19.56 1.08-39.24 12.52-55.44 11.44-16.2 28.52-26.98 48.06-30.36 40.4-6.94 78.84 20.24 85.8 60.58 3.38 19.54-1.08 39.24-12.52 55.44-11.44 16.2-28.52 26.98-48.06 30.36-4.26 0.74-8.54 1.1-12.76 1.1z m0.18-131.94c-3.24 0-6.52 0.28-9.82 0.84-15.18 2.62-28.42 10.98-37.3 23.56-8.88 12.58-12.32 27.86-9.72 43.04 5.4 31.34 35.3 52.42 66.6 47.02 15.18-2.62 28.42-10.98 37.3-23.56 8.88-12.58 12.34-27.86 9.72-43.04-4.84-28.02-29.26-47.86-56.78-47.86z" fill="#0B0606" p-id="2633"></path><path d="M650.82 326.96l135.48 74.36c9.76 5.36 13.32 17.6 7.98 27.36-4.98 9.08-16.02 12.76-25.36 8.92l-142.82-59.06c-14.62-6.04-21.58-22.8-15.52-37.42 6.04-14.62 22.8-21.58 37.42-15.52 0.96 0.4 1.92 0.86 2.82 1.36z" fill="#E74150" p-id="2634"></path><path d="M776.58 447.44c-3.62 0-7.3-0.7-10.84-2.14l-142.84-59.06a36.636 36.636 0 0 1-20.02-20 36.77 36.77 0 0 1-0.02-28.28c7.8-18.84 29.46-27.82 48.28-20.02 1.24 0.5 2.48 1.1 3.64 1.74l0.02 0.02 135.48 74.36c6.66 3.66 11.5 9.7 13.64 17 2.12 7.3 1.28 15-2.38 21.66-5.12 9.3-14.82 14.72-24.96 14.72z m-139.54-115.72c-2.64 0-5.28 0.52-7.8 1.56-5.02 2.08-8.92 6-11 11.02s-2.06 10.54 0.02 15.58 6 8.92 11.02 11l142.82 59.06c5.58 2.26 12.02 0.04 14.9-5.24 1.52-2.78 1.88-5.98 1-9.02a11.742 11.742 0 0 0-5.66-7.06l-135.46-74.36c-0.64-0.36-1.34-0.68-2.02-0.98-2.56-1.04-5.2-1.56-7.82-1.56z" fill="#0B0606" p-id="2635"></path><path d="M803.34 401.18l133.62 77.66c9.62 5.6 12.9 17.92 7.3 27.56-5.2 8.94-16.32 12.36-25.58 8.3l-141.32-62.54c-14.48-6.4-21.02-23.32-14.6-37.8 6.4-14.48 23.32-21.02 37.8-14.6 0.94 0.4 1.88 0.9 2.78 1.42z" fill="#F4AA2C" p-id="2636"></path><path d="M926.8 524.7c-3.84 0-7.74-0.78-11.48-2.42l-141.36-62.54c-9.02-4-15.96-11.26-19.52-20.48-3.56-9.2-3.32-19.24 0.68-28.28 8.26-18.64 30.1-27.08 48.76-18.84 1.22 0.54 2.46 1.18 3.6 1.84h0.02l133.62 77.66a28.28 28.28 0 0 1 13.22 17.32c1.94 7.34 0.92 15.02-2.9 21.6-5.24 9-14.76 14.14-24.64 14.14z m-137.84-119.1c-7.82 0-15.28 4.52-18.62 12.1-2.2 4.96-2.34 10.5-0.38 15.56 1.96 5.06 5.78 9.08 10.74 11.26l141.32 62.54c5.5 2.42 12 0.34 15.02-4.88a11.76 11.76 0 0 0 1.22-8.98 11.742 11.742 0 0 0-5.5-7.2l-133.6-77.66c-0.62-0.36-1.3-0.7-1.96-1-2.68-1.16-5.48-1.74-8.24-1.74z" fill="#0B0606" p-id="2637"></path><path d="M242.18 392.78m-39.74 0a39.74 39.74 0 1 0 79.48 0 39.74 39.74 0 1 0-79.48 0Z" fill="#F4AA2C" p-id="2638"></path><path d="M242.18 440.82c-26.5 0-48.06-21.56-48.06-48.06s21.56-48.06 48.06-48.06 48.06 21.56 48.06 48.06-21.56 48.06-48.06 48.06z m0-79.48c-17.34 0-31.44 14.1-31.44 31.44 0 17.34 14.1 31.44 31.44 31.44s31.44-14.1 31.44-31.44c0-17.34-14.1-31.44-31.44-31.44z" fill="#0B0606" p-id="2639"></path><path d="M200.44 391.72H11.86" fill="#F4AA2C" p-id="2640"></path><path d="M200.44 400.04H11.86c-4.58 0-8.32-3.72-8.32-8.3s3.72-8.32 8.32-8.32h188.58c4.58 0 8.3 3.72 8.3 8.32 0 4.58-3.72 8.3-8.3 8.3z" fill="#0B0606" p-id="2641"></path><path d="M678.88 603.82l-188.3 69.36c-13 4.78-27.42-1.86-32.2-14.86-4.36-11.86 0.78-24.88 11.58-30.72l176.42-95.6c19.2-10.4 43.18-3.28 53.58 15.92 10.4 19.2 3.28 43.18-15.92 53.58-1.62 0.86-3.48 1.68-5.16 2.32z" fill="#F4AA2C" p-id="2642"></path><path d="M481.9 683.04c-4.76 0-9.52-1.04-13.98-3.08a33.14 33.14 0 0 1-17.34-18.78c-5.7-15.48 0.94-33.06 15.44-40.9l176.4-95.6c23.18-12.56 52.28-3.94 64.84 19.26 12.56 23.18 3.92 52.28-19.26 64.84-1.84 1-4.04 2-6.2 2.8l-0.06 0.02-188.3 69.36c-3.74 1.4-7.64 2.08-11.54 2.08z m183.28-147.54c-5.12 0-10.2 1.28-14.82 3.78l-176.42 95.6c-7.28 3.94-10.62 12.78-7.76 20.54 1.56 4.2 4.64 7.56 8.72 9.42 4.06 1.88 8.62 2.06 12.82 0.52l188.26-69.34c1.44-0.54 2.94-1.22 4.12-1.86 15.14-8.2 20.78-27.18 12.58-42.32a31.024 31.024 0 0 0-18.56-15.06c-2.96-0.86-5.96-1.28-8.94-1.28z" fill="#0B0606" p-id="2643"></path><path d="M505.68 653.18l66.26 189.4c4.58 13.08-2.32 27.38-15.4 31.96-11.92 4.18-24.86-1.2-30.52-12.08l-92.7-177.96c-10.08-19.36-2.56-43.22 16.8-53.32 19.36-10.08 43.22-2.56 53.32 16.8 0.84 1.62 1.64 3.5 2.24 5.2z" fill="#F4AA2C" p-id="2644"></path><path d="M548.38 884.24c-12.18 0-23.88-6.7-29.72-17.96l-92.7-177.96c-12.18-23.4-3.06-52.34 20.34-64.52 23.38-12.2 52.34-3.06 64.52 20.32 0.98 1.88 1.94 4.12 2.72 6.28l0.02 0.04 66.26 189.4c2.94 8.42 2.44 17.48-1.44 25.52a33.158 33.158 0 0 1-19.06 17.02c-3.62 1.26-7.3 1.86-10.94 1.86zM468.34 635c-4.96 0-9.86 1.2-14.38 3.54-15.26 7.94-21.22 26.84-13.28 42.1l92.7 177.96c3.82 7.36 12.58 10.84 20.42 8.08a16.692 16.692 0 0 0 9.58-8.56c1.94-4.04 2.2-8.58 0.72-12.82l-66.26-189.38c-0.5-1.42-1.16-2.92-1.78-4.14-3.86-7.4-10.36-12.84-18.3-15.36-3.1-0.94-6.26-1.42-9.42-1.42z" fill="#0B0606" p-id="2645"></path></svg>