<?xml version="1.0" standalone="no"?><!DOCTYPE svg PUBLIC "-//W3C//DTD SVG 1.1//EN" "http://www.w3.org/Graphics/SVG/1.1/DTD/svg11.dtd"><svg t="1637312630337" class="icon" viewBox="0 0 1024 1024" version="1.1" xmlns="http://www.w3.org/2000/svg" p-id="4257" xmlns:xlink="http://www.w3.org/1999/xlink" width="200" height="200"><defs><style type="text/css"></style></defs><path d="M485.603 963.7l-51.2-281.6c-2.1-11.4-8-21.7-16.6-29.3L230.503 435.2v192.9L336.903 718l48 264c4.4 24.3 25.6 42 50.4 42 3.1 0 6.2-0.3 9.2-0.8 27.8-5.1 46.2-31.7 41.1-59.5 0.1 0 0.1 0 0 0z" fill="#B2AEAD" p-id="4258"></path><path d="M394.503 107.2c-28.6-40.4-84.5-50-124.9-21.4C253.603 97 113.003 203 78.903 454.1c-0.4 2.8-0.2 5.5-0.3 8.2-2 8.8-2.3 17.9-0.8 26.8-0.8 2.2-1.2 4.6-1 7l76 225.7L79.003 958.1c-8.1 27.1 7.3 55.6 34.3 63.7 4.7 1.5 9.7 2.2 14.6 2.2 22.6 0 42.5-14.9 49-36.5l76.8-246.4c2-6.6 2.6-13.6 1.8-20.5l0.4-250.2c-0.4-2.3-1.2-4.5-2.3-6.6 1.2-0.6 2-1.7 2.3-3 12.4-97.4 57.6-187.6 128-256 39.7-28.8 38.8-57.5 10.6-97.6z" fill="#7E8CCF" p-id="4259"></path><path d="M256.003 512H82.203l70.6 209.7L79.003 958.1c-8.1 27.1 7.3 55.6 34.3 63.7 4.8 1.5 9.7 2.2 14.7 2.2 22.6 0 42.5-14.9 49-36.5l76.8-246.4c2.1-6.6 2.8-13.5 2.2-20.4V512z" fill="#D2CCC9" p-id="4260"></path><path d="M577.603 190.4c-15-15-39.3-15-54.3 0L392.003 321.8l-37.9-40.2h-162c-21.2 0-38.4-17.2-38.4-38.4s17.2-38.4 38.4-38.4h192v-51.2H201.003c-34.1 42.9-61.5 90.8-81.3 141.9 16.7 23.4 43.7 37.2 72.4 37.3h101c1.4-3-2.2 5.1-5.4 12.2l87.9 58.1c15.2 10.2 35.5 8.2 48.5-4.8l153.6-153.6c15-14.9 15-39.2-0.1-54.3 0.1 0 0.1 0 0 0z" fill="#606FC4" p-id="4261"></path><path d="M358.503 102.4m-102.4 0a102.4 102.4 0 1 0 204.8 0 102.4 102.4 0 1 0-204.8 0Z" fill="#FFBA57" p-id="4262"></path><path d="M409.703 179.2h358.4v51.2H409.703z" fill="#A1887F" p-id="4263"></path><path d="M230.503 256v-51.2c171.2 0 207.2-62.2 207.6-62.8l7.3-13.3 15.5-0.7h486.4v51.2h-473c-21.4 26.3-83.5 76.8-243.8 76.8z" fill="#445963" p-id="4264"></path><path d="M448.103 281.6h-256c-21.2 0-38.4-17.2-38.4-38.4s17.2-38.4 38.4-38.4h256c21.2 0 38.4 17.2 38.4 38.4s-17.2 38.4-38.4 38.4z" fill="#7E8CCF" p-id="4265"></path></svg>