<?xml version="1.0" standalone="no"?><!DOCTYPE svg PUBLIC "-//W3C//DTD SVG 1.1//EN" "http://www.w3.org/Graphics/SVG/1.1/DTD/svg11.dtd"><svg t="1637312827099" class="icon" viewBox="0 0 1024 1024" version="1.1" xmlns="http://www.w3.org/2000/svg" p-id="2817" xmlns:xlink="http://www.w3.org/1999/xlink" width="200" height="200"><defs><style type="text/css"></style></defs><path d="M806.4 268.8c63.6 0 115.2 51.6 115.2 115.2S870 499.2 806.4 499.2 691.2 447.6 691.2 384s51.6-115.2 115.2-115.2M149.2 417.8l242-110.1L457.5 455 128 652.8h621.8l-297.6-438c-13.9-20.9-40.9-28.6-63.8-18.2l-281.6 128c-26.1 10.9-38.4 40.9-27.5 67 10.9 26.1 40.9 38.4 67 27.5 1-0.4 1.9-0.9 2.9-1.3z" fill="#FFBA57" p-id="2818"></path><path d="M1024 627.2c-41 3.2-80.4-16.5-102.4-51.2-22 34.7-61.4 54.4-102.4 51.2-41 3.2-80.4-16.5-102.4-51.2-22 34.7-61.4 54.4-102.4 51.2-41 3.2-80.4-16.5-102.4-51.2-22 34.7-61.4 54.4-102.4 51.2-41 3.2-80.4-16.5-102.4-51.2-22 34.7-61.4 54.4-102.4 51.2-41 3.2-80.4-16.5-102.4-51.2C80.4 610.7 41 630.4 0 627.2V832h1024V627.2z" fill="#7E8CCF" p-id="2819"></path><path d="M1024 678.4c-41 3.2-80.4-16.5-102.4-51.2-22 34.7-61.4 54.4-102.4 51.2-41 3.2-80.4-16.5-102.4-51.2-22 34.7-61.4 54.4-102.4 51.2-41 3.2-80.4-16.5-102.4-51.2-22 34.7-61.4 54.4-102.4 51.2-41 3.2-80.4-16.5-102.4-51.2-22 34.7-61.4 54.4-102.4 51.2-41 3.2-80.4-16.5-102.4-51.2C80.4 661.9 41 681.6 0 678.4V832h1024V678.4z" fill="#C5CAE9" p-id="2820"></path></svg>