<?xml version="1.0" standalone="no"?><!DOCTYPE svg PUBLIC "-//W3C//DTD SVG 1.1//EN" "http://www.w3.org/Graphics/SVG/1.1/DTD/svg11.dtd"><svg t="1637312583503" class="icon" viewBox="0 0 1024 1024" version="1.1" xmlns="http://www.w3.org/2000/svg" p-id="3717" xmlns:xlink="http://www.w3.org/1999/xlink" width="200" height="200"><defs><style type="text/css"></style></defs><path d="M458.075 617.256c4.711 26.456 29.006 44.257 54.264 39.76 25.259-4.497 41.916-29.59 37.205-56.047l-25.132-141.144c-4.711-26.456-29.006-44.257-54.264-39.76-25.259 4.497-41.916 29.59-37.205 56.047l25.132 141.144z" fill="#FC9047" p-id="3718"></path><path d="M504.5 672.711h-0.002c-30.006-0.001-55.74-22.217-61.19-52.825l-25.132-141.144c-2.958-16.611 0.464-33.368 9.635-47.183 9.316-14.034 23.418-23.36 39.708-26.26a59.932 59.932 0 0 1 10.471-0.927c30.006 0 55.741 22.216 61.191 52.825l25.132 141.143c6.152 34.559-15.983 67.505-49.344 73.444a60.006 60.006 0 0 1-10.469 0.927z m-26.51-238.34a29.92 29.92 0 0 0-5.212 0.462c-8.142 1.45-15.235 6.179-19.973 13.317-4.883 7.356-6.692 16.353-5.094 25.333l25.132 141.143c2.897 16.273 16.21 28.085 31.655 28.085h0.001c1.733 0 3.486-0.156 5.21-0.463 17.076-3.04 28.321-20.379 25.068-38.65l-25.132-141.143c-2.897-16.273-16.21-28.084-31.655-28.084z" fill="#2B2B2B" p-id="3719"></path><path d="M452.372 279.691m-105.88 0a105.88 105.88 0 1 0 211.76 0 105.88 105.88 0 1 0-211.76 0Z" fill="#F2D8AA" p-id="3720"></path><path d="M422.919 395.64c-63.934-16.241-102.737-81.467-86.496-145.401 9.943-39.142 38.69-70.409 76.896-83.638 22.082-7.646 45.77-8.634 68.507-2.859 30.97 7.868 57.024 27.325 73.361 54.787s21.001 59.644 13.134 90.614c-9.943 39.142-38.689 70.409-76.895 83.638-22.082 7.645-45.77 8.633-68.507 2.859z m-59.841-138.631c-12.507 49.237 17.375 99.468 66.611 111.975 17.513 4.448 35.75 3.69 52.738-2.192 29.435-10.192 51.581-34.275 59.238-64.42 6.06-23.852 2.467-48.634-10.114-69.784-12.581-21.149-32.646-36.133-56.496-42.192-17.513-4.448-35.75-3.69-52.738 2.192-29.435 10.193-51.581 34.275-59.239 64.421zM341.988 486.892c-19.313 0-38.052-2.224-51.487-8.748-35.992-17.479-130.799-66.218-131.752-66.708-7.368-3.789-10.269-12.832-6.48-20.199 3.789-7.368 12.832-10.268 20.199-6.48 0.951 0.489 95.453 49.073 131.138 66.402 22.983 11.161 83.555 3.741 116.337-3.558 8.084-1.799 16.101 3.295 17.901 11.382 1.8 8.086-3.295 16.101-11.382 17.901-6.442 1.434-46.558 10.008-84.474 10.008z" fill="#2B2B2B" p-id="3721"></path><path d="M208.288 295.388m-65.997 0a65.997 65.997 0 1 0 131.994 0 65.997 65.997 0 1 0-131.994 0Z" fill="#26A5DD" p-id="3722"></path><path d="M208.285 376.402c-34.488 0-65.246-21.907-76.536-54.513-14.613-42.204 7.833-88.428 50.037-103.041a80.832 80.832 0 0 1 26.504-4.476c34.489 0 65.247 21.907 76.536 54.514 14.613 42.203-7.834 88.427-50.038 103.04a80.826 80.826 0 0 1-26.503 4.476z m0.005-132.029c-5.66 0-11.275 0.95-16.688 2.825-26.572 9.201-40.705 38.304-31.504 64.876 7.11 20.533 26.475 34.329 48.187 34.329 5.66 0 11.275-0.95 16.688-2.825 26.572-9.201 40.705-38.304 31.504-64.875-7.109-20.534-26.474-34.33-48.187-34.33zM591.952 918.808c-2.496 0-5.025-0.624-7.354-1.938-7.216-4.069-9.767-13.218-5.697-20.434 0.168-0.299 17.021-30.229 33.638-63.562 30.01-60.203 32.384-77.391 32.396-81.225-0.027-0.538-1.264-14.604-51.258-60.809-26.774-24.746-53.671-45.846-53.939-46.056-6.522-5.107-7.671-14.535-2.563-21.059 5.105-6.521 14.532-7.673 21.058-2.563 1.153 0.902 28.574 22.416 56.462 48.251 53.472 49.537 60.282 70.022 60.241 82.335-0.034 10.033-3.761 30.756-35.601 94.614-16.953 34.002-34.132 64.505-34.303 64.81-2.758 4.889-7.843 7.636-13.08 7.636zM321.582 912.572c-7.517 0.001-14.002-5.638-14.883-13.285-0.896-7.784 4.336-14.861 11.869-16.407 6.188-2.478 32.454-19.58 73.264-50.987 37.021-28.491 67.33-54.623 75.42-65.024 1.599-2.056 9.122-14.816 0.218-64.322-5.048-28.063-12.761-53.037-12.838-53.286-2.457-7.911 1.965-16.316 9.876-18.773 7.91-2.459 16.316 1.965 18.774 9.877 0.338 1.088 8.342 27.007 13.714 56.872 7.889 43.86 5.906 72.662-6.063 88.051-15.27 19.633-68.304 60.825-84.195 72.982-17.985 13.76-35.478 26.493-49.257 35.855-23.59 16.028-29.622 17.825-34.165 18.349-0.583 0.066-1.162 0.098-1.734 0.098zM617.648 505.017c-8.744 0-24.159-4.45-60.213-22.458-23.632-11.803-45.122-23.997-46.025-24.51-7.202-4.093-9.723-13.25-5.63-20.452 4.092-7.201 13.25-9.725 20.452-5.631 0.193 0.109 19.502 11.064 40.969 21.925 35.022 17.717 46.694 20.523 49.666 20.963 19.087-6.195 110.687-31.601 114.705-32.715 7.981-2.212 16.249 2.463 18.463 10.447 2.213 7.983-2.465 16.249-10.447 18.462-28.056 7.778-103.333 28.819-114.594 32.718-2.03 0.703-4.277 1.251-7.346 1.251zM887.87 241.557H647.883c-8.284 0-15-6.716-15-15s6.716-15 15-15H887.87c8.284 0 15 6.716 15 15s-6.716 15-15 15z" fill="#2B2B2B" p-id="3723"></path><path d="M815.874 399.048h-95.995L692.88 226.556h143.993z" fill="#FFFFFF" p-id="3724"></path><path d="M829.158 414.048H707.044L675.35 211.557h178.46l-24.652 202.491z m-96.444-30h69.876l17.347-142.491H710.41l22.304 142.491z" fill="#2B2B2B" p-id="3725"></path><path d="M892.37 117.062v352.482" fill="#FFFFFF" p-id="3726"></path><path d="M892.37 484.544c-8.284 0-15-6.716-15-15V117.062c0-8.284 6.716-15 15-15s15 6.716 15 15v352.482c0 8.285-6.716 15-15 15z" fill="#2B2B2B" p-id="3727"></path></svg>