<?xml version="1.0" standalone="no"?><!DOCTYPE svg PUBLIC "-//W3C//DTD SVG 1.1//EN" "http://www.w3.org/Graphics/SVG/1.1/DTD/svg11.dtd"><svg t="1637312707782" class="icon" viewBox="0 0 1024 1024" version="1.1" xmlns="http://www.w3.org/2000/svg" p-id="2356" xmlns:xlink="http://www.w3.org/1999/xlink" width="200" height="200"><defs><style type="text/css"></style></defs><path d="M204.8 768m-25.6 0a25.6 25.6 0 1 0 51.2 0 25.6 25.6 0 1 0-51.2 0Z" fill="#607D8B" p-id="2357"></path><path d="M819.2 768m-25.6 0a25.6 25.6 0 1 0 51.2 0 25.6 25.6 0 1 0-51.2 0Z" fill="#607D8B" p-id="2358"></path><path d="M908.8 358.4H749.3l-95.6-133.1c-1.1-2-1.9-4.1-3.2-6.1-27.4-41.2-83-52.4-124.2-25L321.5 347.9c-41.2 27.4-52.3 83.1-24.9 124.2 5.3 7.7 11.7 14.4 19.1 20.1 0.8 1.1 1.6 2.1 2.6 3l8.5 4.7c1.6 0.9 3.1 1.8 4.8 2.6l151.8 84L461 787.9c-3.2 28.1 17 53.5 45.1 56.6h0.2c1.9 0.3 3.8 0.3 5.6 0.3 26.1 0 47.9-19.7 50.8-45.5l25.6-230.4c2-18-5.6-35.7-20.1-46.6l-88.9-69.1 143.6-107.7 75.4 73.6c7.2 10.1 18.8 16.1 31.2 16.1h179.2c21.2 0 38.4-17.2 38.4-38.4 0.1-21.2-17.1-38.4-38.3-38.4zM755.2 51.2c49.5 0 89.6 40.1 89.6 89.6s-40.1 89.6-89.6 89.6c-49.5 0-89.6-40.1-89.6-89.6s40.1-89.6 89.6-89.6" fill="#FFBA57" p-id="2359"></path><path d="M204.8 972.8C91.9 972.8 0 880.9 0 768s91.9-204.8 204.8-204.8S409.6 655.1 409.6 768s-91.9 204.8-204.8 204.8z m0-358.4c-84.7 0-153.6 68.9-153.6 153.6s68.9 153.6 153.6 153.6S358.4 852.7 358.4 768s-68.9-153.6-153.6-153.6zM819.2 972.8c-112.9 0-204.8-91.9-204.8-204.8s91.9-204.8 204.8-204.8S1024 655.1 1024 768s-91.9 204.8-204.8 204.8z m0-358.4c-84.7 0-153.6 68.9-153.6 153.6s68.9 153.6 153.6 153.6S972.8 852.7 972.8 768s-68.9-153.6-153.6-153.6z" fill="#B0BEC5" p-id="2360"></path><path d="M479.4 453.1L321.5 347.9c-41.2 27.4-52.3 83.1-24.9 124.2 5.3 7.7 11.7 14.4 19.1 20.1 0.8 1.1 1.6 2.1 2.6 3l8.5 4.7c1.6 0.9 3.1 1.8 4.8 2.6l142 78.6 96-57.6c-0.5-0.4-0.8-0.9-1.3-1.3l-88.9-69.1z" fill="#2D4C5C" p-id="2361"></path><path d="M653.8 225.3c-1.1-2-1.9-4.1-3.2-6.1-27.4-41.2-83-52.4-124.2-25L321.5 347.9l157.9 105.3L623 345.5l67.2 65.7 1.1-1.5 55.2-55.3-92.7-129.1z" fill="#9575CD" p-id="2362"></path></svg>