<?xml version="1.0" standalone="no"?><!DOCTYPE svg PUBLIC "-//W3C//DTD SVG 1.1//EN" "http://www.w3.org/Graphics/SVG/1.1/DTD/svg11.dtd"><svg t="1637312387983" class="icon" viewBox="0 0 1024 1024" version="1.1" xmlns="http://www.w3.org/2000/svg" p-id="2247" xmlns:xlink="http://www.w3.org/1999/xlink" width="200" height="200"><defs><style type="text/css"></style></defs><path d="M703.893126 358.805496h-78.79923l-106.098964-13.199871c13.999863-58.499429 40.699603-147.698558 108.698938-170.398336 37.199637-12.899874 62.49939-47.599535 63.299382-86.99915-0.799992-49.399518-41.399596-88.899132-90.899112-88.199139a86.99915 86.99915 0 0 0-28.999717 5.299948c-197.798068 65.999355-235.097704 292.097147-237.697679 302.397047-1.99998 8.399918-2.699974 16.999834-2.199978 25.59975h-0.399996c0 76.699251 25.59975 102.299001 76.699251 102.299001h296.297106c21.199793 0 38.399625-17.199832 38.399625-38.399625s-17.099833-38.399625-38.299626-38.399625zM281.797248 550.703622c0 49.499517 40.099608 89.499126 89.499126 89.499126s89.499126-40.099608 89.499126-89.499126-40.099608-89.499126-89.499126-89.499126-89.499126 40.099608-89.499126 89.499126" fill="#FFBA57" p-id="2248"></path><path d="M639.893751 51.808494c-28.199725 0.099999-51.099501 22.899776-51.1995 51.1995v562.794504c0.099999 28.199725 22.899776 51.099501 51.1995 51.1995 28.199725-0.099999 51.099501-22.899776 51.1995-51.1995v-575.994375c0-28.099726-22.999775-37.999629-51.1995-37.999629z" fill="#FFBA57" p-id="2249"></path><path d="M521.994902 333.205746h-63.299381l75.099266-40.399605c-4.699954 13.999863-8.499917 27.699729-11.799885 40.399605z" fill="#606FC4" p-id="2250"></path><path d="M691.093251 88.208139c-0.199998-9.699905-1.899981-19.199813-5.09995-28.299724-16.799836-46.599545-68.099335-70.999307-114.798879-54.599467-20.599799 6.899933-40.399605 15.799846-59.099423 26.799738l76.699251 166.798372 102.299001-108.998936v-0.699993-0.99999z" fill="#2D4C5C" p-id="2251"></path><path d="M1023.690003 819.300999c-40.9996 3.199969-80.299216-16.499839-102.299001-51.1995-21.999785 34.699661-61.3994 54.399469-102.299001 51.1995-40.9996 3.199969-80.299216-16.499839-102.299001-51.1995-21.999785 34.699661-61.3994 54.399469-102.299001 51.1995-40.9996 3.199969-80.299216-16.499839-102.299001-51.1995-21.999785 34.699661-61.3994 54.399469-102.299001 51.1995-40.9996 3.199969-80.299216-16.499839-102.299001-51.1995-21.999785 34.699661-61.3994 54.399469-102.299001 51.1995-40.9996 3.199969-80.299216-16.499839-102.299001-51.1995-21.999785 34.699661-61.3994 54.399469-102.299001 51.1995v204.698001H1023.99v-204.698001z" fill="#7E8CCF" p-id="2252"></path><path d="M1023.690003 870.500499c-40.9996 3.199969-80.299216-16.499839-102.299001-51.1995-21.999785 34.699661-61.3994 54.399469-102.299001 51.1995-40.9996 3.199969-80.299216-16.499839-102.299001-51.1995-21.999785 34.699661-61.3994 54.399469-102.299001 51.1995-40.9996 3.199969-80.299216-16.499839-102.299001-51.1995-21.999785 34.699661-61.3994 54.399469-102.299001 51.1995-40.9996 3.199969-80.299216-16.499839-102.299001-51.1995-21.999785 34.699661-61.3994 54.399469-102.299001 51.1995-40.9996 3.199969-80.299216-16.499839-102.299001-51.1995-21.999785 34.699661-61.3994 54.399469-102.299001 51.1995v153.498501H1023.99v-153.498501z" fill="#C5CAE9" p-id="2253"></path><path d="M588.694251 435.604746H690.993252v51.1995H588.694251zM588.694251 307.705995v46.599545l36.299646 4.499956h65.999355v-51.1995H588.694251zM588.694251 198.907058l-24.499761-53.29948c-54.699466 48.999521-90.999111 115.198875-102.998994 187.698167l57.199442 11.999883c11.29989-44.299567 32.999678-109.098935 70.399312-145.198582v-1.199988z" fill="#F9A825" p-id="2254"></path></svg>